<svg xmlns="http://www.w3.org/2000/svg" xmlns:xlink="http://www.w3.org/1999/xlink" width="5653" height="4473" viewBox="0 0 5653 4473">
  <defs>
    <clipPath id="clip-Arranger_Logo-square-invert">
      <rect width="5653" height="4473"/>
    </clipPath>
  </defs>
  <g id="Arranger_Logo-square-invert" clip-path="url(#clip-Arranger_Logo-square-invert)">
    <rect id="Rechteck_4" data-name="Rechteck 4" width="2048" height="1024" transform="translate(39 -39)" fill="none"/>
    <g id="Gruppe_5" data-name="Gruppe 5" transform="translate(0 96)">
      <g id="Gruppe_3" data-name="Gruppe 3" transform="translate(-723.014 3238)">
        <path id="Pfad_2" data-name="Pfad 2" d="M1773.1,807.907,1721.675,664.9H1524.769L1474.4,807.907h-88.766l192.679-517.091h91.581L1862.57,807.907Zm-73.618-215.572-48.258-140.193q-5.284-14.086-14.618-44.382t-12.858-44.384q-9.511,43.327-27.827,94.753l-46.5,134.206Z" fill="#fff"/>
        <path id="Pfad_3" data-name="Pfad 3" d="M2086.879,602.2V807.907h-84.186V292.929h145.476q99.681,0,147.59,37.337t47.9,112.717q0,96.164-100.036,137.022l145.476,227.9h-95.809L2170.009,602.2Zm0-69.742h58.472q58.824,0,85.244-21.84t26.418-64.813q0-43.671-28.532-62.7t-85.948-19.022h-55.654Z" fill="#fff"/>
        <path id="Pfad_4" data-name="Pfad 4" d="M2620.106,602.2V807.907H2535.92V292.929H2681.4q99.678,0,147.59,37.337t47.9,112.717q0,96.164-100.036,137.022l145.476,227.9h-95.812L2703.233,602.2Zm0-69.742h58.472q58.82,0,85.241-21.84t26.418-64.813q0-43.671-28.531-62.7T2675.76,364.08h-55.654Z" fill="#fff"/>
        <path id="Pfad_5" data-name="Pfad 5" d="M3388.628,807.907,3337.2,664.9H3140.295l-50.369,143.012H3001.16l192.678-517.091h91.582L3478.1,807.907ZM3315.01,592.335l-48.258-140.193q-5.284-14.086-14.618-44.382t-12.858-44.384q-9.511,43.327-27.827,94.753l-46.5,134.206Z" fill="#fff"/>
        <path id="Pfad_6" data-name="Pfad 6" d="M4047.251,807.907H3944.043L3690.781,397.543h-2.818l1.763,22.9q4.927,65.52,4.932,119.762V807.907h-76.439V292.929h102.152l252.557,408.248h2.114q-.708-8.1-2.818-59t-2.114-79.431V292.929h77.141Z" fill="#fff"/>
        <path id="Pfad_7" data-name="Pfad 7" d="M4466,528.578H4655.5V787.125a548.452,548.452,0,0,1-89.294,21.486,631.981,631.981,0,0,1-92.464,6.341q-116.949,0-180.348-69.217T4230,550.418q0-124.34,71.5-194.615t196.9-70.272q80.659,0,152.875,31l-29.59,70.1q-62.7-28.878-125.4-28.885-82.424,0-130.327,51.78t-47.907,141.6q0,94.4,43.149,143.539T4485.371,743.8q40.857,0,87.357-10.215v-132.8H4466Z" fill="#fff"/>
        <path id="Pfad_8" data-name="Pfad 8" d="M5142.585,807.907H4851.279V292.929h291.306V364.08h-207.12V504.274h194.087v70.449H4935.465V736.4h207.12Z" fill="#fff"/>
        <path id="Pfad_9" data-name="Pfad 9" d="M5410.219,602.2V807.907h-84.185V292.929H5471.51q99.681,0,147.592,37.337t47.9,112.717q0,96.164-100.038,137.022l145.476,227.9h-95.809L5493.35,602.2Zm0-69.742h58.475q58.82,0,85.241-21.84t26.418-64.813q0-43.671-28.531-62.7t-85.946-19.022h-55.657Z" fill="#fff"/>
      </g>
      <path id="Pfad_10" data-name="Pfad 10" d="M2869.761,1860.69l791.063,1582.13H2078.7ZM2078.7,278.561,2869.761,1860.69H1287.632ZM1287.632,1860.69,2078.7,3442.819H496.567Z" transform="translate(693.941 -204.853)" fill="#fff"/>
    </g>
  </g>
</svg>
