<svg xmlns="http://www.w3.org/2000/svg" viewBox="0 0 877.67 917.17"><defs><style>.cls-1{fill:#ed145b;}</style></defs><title>PixelSquid_Icon_Flat</title><g id="Layer_2" data-name="Layer 2"><g id="Layer_1-2" data-name="Layer 1"><g id="Layer_2-2" data-name="Layer 2"><g id="PS"><path class="cls-1" d="M534.46,401.58h0l-16-4.6-2-.55-15.81-4.14h0C463.91,414.86,408.76,449,408.76,449a77,77,0,0,0-38.52,68.94s-2.21,70.88-3.12,110.31c24.72-21.88,49.59-43.8,76.29-63.65a357,357,0,0,1,45.23-29.1A167.63,167.63,0,0,1,539.79,518a127.26,127.26,0,0,1,53.78,2.44A109,109,0,0,1,640,547a107.72,107.72,0,0,1,9.66,10.71,109.84,109.84,0,0,1,24.54,86.91h0c-2-17.83-11-35-29-42-25.14-10-63.65-.33-106,47.57-27.58,31.2-56.72,80.06-94.54,152.22l-21.1,40.22L684.85,691.91c31.48-18.38,33.09-55.15,33.13-61.58V472.77c-35-27.12-96.51-46.83-143.26-60.12C559.1,408.33,545.26,404.47,534.46,401.58Z"/><path class="cls-1" d="M666.69,592.55A109.82,109.82,0,0,0,638,549.11a103.27,103.27,0,0,0-45.64-24,121.92,121.92,0,0,0-51.52-.55,159.33,159.33,0,0,0-48.31,18.39,345.34,345.34,0,0,0-43,29.78C422,594.61,396.62,619,371,643.38s-50.56,49.32-77.08,73.54c-35.12,35.62-89,68.62-118.44,74.78-33,6.89-63.25.92-65.59-25.7h0l-3.36-1.74-5.88-3.08L88.87,755Q65.38,742.7,42,730.06c-12.59,47.8,1,86.46,22.25,110.31a92,92,0,0,0,36.91,23.72,142.51,142.51,0,0,0,90.08.64,181.64,181.64,0,0,0,42.42-19A378.37,378.37,0,0,0,273,818.12a744.63,744.63,0,0,0,71.7-65.26c22.71-23.26,44.49-47.48,66.14-71.88s43-49.28,66.78-72.07a263.78,263.78,0,0,1,38.43-31.16,157.14,157.14,0,0,1,21.78-12,116.8,116.8,0,0,1,23.86-7.13A107.64,107.64,0,0,1,610.89,560a76.38,76.38,0,0,1,22.34,10.29,78.54,78.54,0,0,1,17.7,16.92A78,78,0,0,0,632.54,571a76.06,76.06,0,0,0-22.29-9.2,104.92,104.92,0,0,0-47.94.56,115,115,0,0,0-23,7.72A161.88,161.88,0,0,0,518.6,582.3a263.41,263.41,0,0,0-36.77,31.57c-23,23-43.24,48.54-64.34,73.54s-42.15,50.05-64.35,74.18A766.52,766.52,0,0,1,282,830.21a389.45,389.45,0,0,1-39.66,29.28,198.81,198.81,0,0,1-46,22.2A161.55,161.55,0,0,1,94,883.21c-2.11-.68-4.23-1.46-6.34-2.35,47,41.37,119.82,51.2,185,9.47a277.08,277.08,0,0,0,43.2-35.44,616.2,616.2,0,0,0,43.11-48c23.49-28.63,47.8-61.45,73.91-96.52,42.05-56.21,74-93,103.55-113,45.27-30.7,84.52-25.51,109.25-6.16a75,75,0,0,1,28.59,53.18A138,138,0,0,0,666.69,592.55Z"/><path class="cls-1" d="M53.43,703.54q24.41,13.11,48.67,26.61l23,12.64a84.64,84.64,0,0,0,21.37,8,111.52,111.52,0,0,0,47.25-.37,168.78,168.78,0,0,0,46.7-17.6A213.57,213.57,0,0,0,262,719.4c6.9-4.92,13.79-10.34,20.41-15.9,23-19.45,45.68-40.5,68.66-61-.59-33-3.44-124.51-3.44-124.51a77,77,0,0,0-38.47-68.94s-89.53-55.43-116.1-71.65-53.68-32.73-80.29-49.27q-31-19.31-61.68-39.12h0c-5.89-3.81-11.82-7.53-17.65-11.4,28,14.16,55.75,28.73,83.37,43.48s55.15,29.6,82.73,44.72,118.58,64,118.58,64a82.73,82.73,0,0,0,81.58,0s43.07-23,78.92-42.42c-19.72-4.87-40.26-9.74-61.41-14.71-126.07-29.78-269-63.56-339-126.62-4.14-3.77-8-7.63-11.68-11.35l-1.33-1.29a111.71,111.71,0,0,1-7.63-8.23h0L37.89,236.53,25,243.88A47.93,47.93,0,0,0,6.64,262.27h0l-.41.87h0A60.54,60.54,0,0,0,0,291.5V626.7c0,42.42,18.39,56.71,33.51,65.4L50,701.57Z"/><path class="cls-1" d="M205,143.55a279.37,279.37,0,0,0,38.29,5.61c6.48.59,12.91.92,19.53,1.15l19.9.69c52.91,1.37,106.22,0,159.63-.88,28.82-.41,57.68-.87,86.68-.73L391.11,69.83a65.19,65.19,0,0,0-64.76,0L300.06,85l-99.37,57.45C202.25,142.86,203.54,143.27,205,143.55Z"/><path class="cls-1" d="M244.08,101.45A131.11,131.11,0,0,0,218.8,84.63a102,102,0,0,0-17.65-6.48A84.73,84.73,0,0,0,183,75.34a49.81,49.81,0,0,0-32.17,9.2,22.87,22.87,0,0,0-8.09,11.62,20.11,20.11,0,0,0,1.61,13.47,53.36,53.36,0,0,0,24.17,21.74l5.66-2.67c0-14.43,20.91-28,51.79-20.26Z"/><path class="cls-1" d="M863,304.92a178.27,178.27,0,0,0-44.22-59.75,214.72,214.72,0,0,0-64.34-38.93c-48-18.66-100.29-26.24-152.78-29.51s-105.71-3.35-159.21-3.21-106.86.92-160.86-1.66l-19.54-1c-6.75-.37-13.79-.88-20.41-1.61a298.27,298.27,0,0,1-40.81-6.8A169.65,169.65,0,0,1,160.89,148a91.71,91.71,0,0,1-18.39-12.46,57.17,57.17,0,0,1-14.34-18.84A37.44,37.44,0,0,1,126,91.15a38.85,38.85,0,0,1,14.57-20.49,60.52,60.52,0,0,1,43.8-10,77,77,0,0,1,20.91,5.6,87.59,87.59,0,0,1,18.38,10.44,96.63,96.63,0,0,1,23,23.85l49-19C237-16.3,109.73-20.81,49.89,40,6,84.54-2.41,167,65.47,227.34c4.18,3.67,8.37,7.49,13,11.12,93,72.89,312.9,79.1,456,103,10.8,1.8,24.64,3.91,40,6.44,69.4,11.67,170.84,33.6,170.84,84.7v117.9a331.21,331.21,0,0,0,65.86-43.07,204.09,204.09,0,0,0,47.34-58.46,160.8,160.8,0,0,0,19.08-71.47A164.58,164.58,0,0,0,863,304.92ZM785.09,459.63a130.81,130.81,0,0,1-29,52,314.61,314.61,0,0,0,14.15-55.15,160.81,160.81,0,0,0-.64-54.14,108.19,108.19,0,0,0-23-47.76A137.16,137.16,0,0,0,704,321.24a224.61,224.61,0,0,0-52.9-17.88,480.65,480.65,0,0,0-56.3-9.2c-38-3.81-76.8-4.59-115.41-5.92-77.35-2.53-155.17-4.28-232.34-14.85a575.37,575.37,0,0,1-113.75-26,257.45,257.45,0,0,1-52.67-25.33,141.57,141.57,0,0,1-41.73-40.21,141.09,141.09,0,0,0,43.34,37.64,253.13,253.13,0,0,0,52.76,23,591.33,591.33,0,0,0,113.2,21.42c38.29,4.18,76.85,6,115.46,7.21s77.26,1.52,116,2q29.1.4,58.24,1.29c19.39.59,38.88,1.42,58.46,3.17A509.31,509.31,0,0,1,654.83,286a240,240,0,0,1,57.09,19.08,155.43,155.43,0,0,1,48.35,37.59A125.73,125.73,0,0,1,785.09,459.63Z"/></g></g></g></g></svg>